<svg xmlns="http://www.w3.org/2000/svg" viewBox="0 0 30 30">
  <defs>
    <linearGradient id="grad" x1="0%" y1="0%" x2="100%" y2="100%">
      <stop offset="0%" stop-color="#6366f1"/>
      <stop offset="100%" stop-color="#8b5cf6"/>
    </linearGradient>
  </defs>
  <!-- Mor arkaplan (yuvarlatılmış kare) -->
  <rect x="0" y="0" width="30" height="30" rx="9" fill="url(#grad)" />
  
  <!-- İçerideki göz ikonu (tam ortaya yerleştirilmiş) -->
  <svg x="8" y="8" width="14" height="14" viewBox="0 0 24 24" fill="none" stroke="white" stroke-width="2.5">
    <path stroke-linecap="round" stroke-linejoin="round"
      d="M2.036 12.322a1.012 1.012 0 010-.639C3.423 7.51 7.36 4.5 12 4.5c4.638 0 8.573 3.007 9.963 7.178.07.207.07.431 0 .639C20.577 16.49 16.64 19.5 12 19.5c-4.638 0-8.573-3.007-9.963-7.178z M15 12a3 3 0 11-6 0 3 3 0 016 0z" />
  </svg>
</svg>
